<svg xmlns="http://www.w3.org/2000/svg" version="1.1" xmlns:xlink="http://www.w3.org/1999/xlink" xmlns:svgjs="http://svgjs.dev/svgjs" width="1500" height="1543" viewBox="0 0 1500 1543"><g transform="matrix(1,0,0,1,-1.5368783723760089,0.6246963562753081)"><svg viewBox="0 0 240 247" data-background-color="#ffffff" preserveAspectRatio="xMidYMid meet" height="1543" width="1500" xmlns="http://www.w3.org/2000/svg" xmlns:xlink="http://www.w3.org/1999/xlink"><g id="tight-bounds" transform="matrix(1,0,0,1,0.24590053958016256,-0.09999999999999432)"><svg viewBox="0 0 239.50819892083967 247.2" height="247.2" width="239.50819892083967"><g><svg viewBox="0 0 395.52 408.2221169903039" height="247.2" width="239.50819892083967"><g transform="matrix(1,0,0,1,0,236.3701102750428)"><svg viewBox="0 0 395.52 171.8520067152611" height="171.8520067152611" width="395.52"><g id="textblocktransform"><svg viewBox="0 0 395.52 171.8520067152611" height="171.8520067152611" width="395.52" id="textblock"><g><svg viewBox="0 0 395.52 92.68876071706937" height="92.68876071706937" width="395.52"><g transform="matrix(1,0,0,1,0,0)"><svg width="395.52" viewBox="5 -34.45 192.43 45.1" height="92.68876071706937" data-palette-color="#61777f"><path d="M20.2-18.2Q23.75-17.6 25.95-15.7 28.15-13.8 28.15-9.8L28.15-9.8Q28.15 0 14.5 0L14.5 0 5 0 5-34.45 13.15-34.45Q19.7-34.45 23.18-32.3 26.65-30.15 26.65-25.75L26.65-25.75Q26.65-22.75 24.78-20.75 22.9-18.75 20.2-18.2L20.2-18.2ZM13.65-30.7L9.75-30.7 9.75-19.85 14.95-19.85Q17.95-19.85 19.88-21.3 21.8-22.75 21.8-25.4L21.8-25.4Q21.8-28.4 19.78-29.55 17.75-30.7 13.65-30.7L13.65-30.7ZM14.5-3.8Q18.7-3.8 20.93-5.05 23.15-6.3 23.15-9.8L23.15-9.8Q23.15-13.2 21-14.7 18.85-16.2 15.4-16.2L15.4-16.2 9.75-16.2 9.75-3.8 14.5-3.8ZM46.6-26.95Q48-26.95 49.2-26.65L49.2-26.65 48.35-22.15Q47.15-22.45 46.05-22.45L46.05-22.45Q43.6-22.45 42.1-20.65 40.6-18.85 39.75-15.05L39.75-15.05 39.75 0 35.15 0 35.15-26.35 39.1-26.35 39.55-21Q40.6-23.95 42.4-25.45 44.2-26.95 46.6-26.95L46.6-26.95ZM74.35-13.95Q74.35-12.8 74.25-11.6L74.25-11.6 57.45-11.6Q57.75-7.25 59.65-5.2 61.55-3.15 64.55-3.15L64.55-3.15Q66.45-3.15 68.05-3.7 69.65-4.25 71.4-5.45L71.4-5.45 73.4-2.7Q69.2 0.6 64.2 0.6L64.2 0.6Q58.7 0.6 55.62-3 52.55-6.6 52.55-12.9L52.55-12.9Q52.55-17 53.87-20.18 55.2-23.35 57.67-25.15 60.15-26.95 63.5-26.95L63.5-26.95Q68.75-26.95 71.55-23.5 74.35-20.05 74.35-13.95L74.35-13.95ZM69.8-15L69.8-15.3Q69.8-19.2 68.25-21.25 66.7-23.3 63.6-23.3L63.6-23.3Q57.95-23.3 57.45-15L57.45-15 69.8-15ZM99.89-26.35L91.79-14.1 100.94 0 95.39 0 88.94-11.15 82.39 0 77.19 0 86.39-13.9 78.24-26.35 83.64-26.35 89.14-16.7 94.69-26.35 99.89-26.35ZM118.04-26.95Q123.09-26.95 125.44-23.35 127.79-19.75 127.79-13.2L127.79-13.2Q127.79-7 125.09-3.2 122.39 0.6 117.44 0.6L117.44 0.6Q113.04 0.6 110.54-2.4L110.54-2.4 110.54 10.1 105.94 10.65 105.94-26.35 109.89-26.35 110.24-22.8Q111.69-24.8 113.74-25.88 115.79-26.95 118.04-26.95L118.04-26.95ZM116.34-3.15Q122.84-3.15 122.84-13.2L122.84-13.2Q122.84-23.3 116.89-23.3L116.89-23.3Q114.94-23.3 113.34-22.15 111.74-21 110.54-19.2L110.54-19.2 110.54-6.35Q111.54-4.8 113.04-3.98 114.54-3.15 116.34-3.15L116.34-3.15ZM145.54-26.95Q151.09-26.95 154.16-23.25 157.24-19.55 157.24-13.2L157.24-13.2Q157.24-9.1 155.84-5.98 154.44-2.85 151.79-1.13 149.14 0.6 145.49 0.6L145.49 0.6Q139.94 0.6 136.84-3.1 133.74-6.8 133.74-13.15L133.74-13.15Q133.74-17.25 135.14-20.38 136.54-23.5 139.19-25.23 141.84-26.95 145.54-26.95L145.54-26.95ZM145.54-23.25Q138.69-23.25 138.69-13.15L138.69-13.15Q138.69-3.1 145.49-3.1L145.49-3.1Q152.29-3.1 152.29-13.2L152.29-13.2Q152.29-23.25 145.54-23.25L145.54-23.25ZM176.29-26.95Q177.69-26.95 178.89-26.65L178.89-26.65 178.04-22.15Q176.84-22.45 175.74-22.45L175.74-22.45Q173.29-22.45 171.79-20.65 170.29-18.85 169.44-15.05L169.44-15.05 169.44 0 164.84 0 164.84-26.35 168.79-26.35 169.24-21Q170.29-23.95 172.09-25.45 173.89-26.95 176.29-26.95L176.29-26.95ZM195.68-4.25L197.43-1.2Q194.83 0.6 191.53 0.6L191.53 0.6Q188.18 0.6 186.31-1.33 184.43-3.25 184.43-6.9L184.43-6.9 184.43-22.8 179.83-22.8 179.83-26.35 184.43-26.35 184.43-32.3 189.03-32.85 189.03-26.35 195.28-26.35 194.78-22.8 189.03-22.8 189.03-7.1Q189.03-5.05 189.76-4.13 190.48-3.2 192.18-3.2L192.18-3.2Q193.73-3.2 195.68-4.25L195.68-4.25Z" opacity="1" transform="matrix(1,0,0,1,0,0)" fill="#61777f" class="wordmark-text-0" data-fill-palette-color="primary" id="text-0"></path></svg></g></svg></g><g transform="matrix(1,0,0,1,132.85596091905376,114.57035259211224)"><svg viewBox="0 0 129.80807816189247 57.28165412314887" height="57.28165412314887" width="129.80807816189247"><g transform="matrix(1,0,0,1,0,0)"><svg width="129.80807816189247" viewBox="1.95 -40.85 114.09 50.35" height="57.28165412314887" data-palette-color="#61777f"><path d="M12.7 0.45L12.7 0.45Q9.2 0.45 6.88-1.05 4.55-2.55 3.35-5.2 2.15-7.85 1.95-11.35L1.95-11.35 6.95-12.7Q7.1-10.55 7.63-8.55 8.15-6.55 9.35-5.28 10.55-4 12.7-4L12.7-4Q14.9-4 16.03-5.23 17.15-6.45 17.15-8.75L17.15-8.75Q17.15-11.5 15.9-13.18 14.65-14.85 12.75-16.55L12.75-16.55 5.95-22.55Q3.95-24.3 3-26.38 2.05-28.45 2.05-31.5L2.05-31.5Q2.05-35.95 4.6-38.4 7.15-40.85 11.55-40.85L11.55-40.85Q13.95-40.85 15.78-40.23 17.6-39.6 18.82-38.3 20.05-37 20.78-35.02 21.5-33.05 21.75-30.4L21.75-30.4 16.95-29.1Q16.8-31.1 16.35-32.77 15.9-34.45 14.78-35.48 13.65-36.5 11.55-36.5L11.55-36.5Q9.45-36.5 8.28-35.38 7.1-34.25 7.1-32.05L7.1-32.05Q7.1-30.2 7.73-29 8.35-27.8 9.75-26.55L9.75-26.55 16.6-20.55Q18.9-18.55 20.65-15.78 22.4-13 22.4-9.2L22.4-9.2Q22.4-6.2 21.15-4.03 19.9-1.85 17.73-0.7 15.55 0.45 12.7 0.45ZM31.7 9.5L26.35 9.5 26.35-28.9 31.7-28.9 31.7-26.6Q32.65-27.7 34-28.5 35.35-29.3 37.2-29.3L37.2-29.3Q39.45-29.3 40.77-28.13 42.1-26.95 42.75-25.18 43.4-23.4 43.6-21.58 43.8-19.75 43.8-18.45L43.8-18.45 43.8-11.45Q43.8-8.4 43.2-5.68 42.6-2.95 41.02-1.28 39.45 0.4 36.6 0.4L36.6 0.4Q35.05 0.4 33.85-0.38 32.65-1.15 31.7-2.15L31.7-2.15 31.7 9.5ZM35.55-3.8L35.55-3.8Q36.95-3.8 37.55-4.83 38.15-5.85 38.3-7.6 38.45-9.35 38.45-11.45L38.45-11.45 38.45-18.45Q38.45-20.25 38.25-21.78 38.05-23.3 37.4-24.2 36.75-25.1 35.35-25.1L35.35-25.1Q34.3-25.1 33.35-24.65 32.4-24.2 31.7-23.6L31.7-23.6 31.7-5.1Q32.45-4.55 33.4-4.17 34.35-3.8 35.55-3.8ZM56.6 0.4L56.6 0.4Q53.4 0.4 51.55-0.9 49.7-2.2 48.92-4.6 48.15-7 48.15-10.25L48.15-10.25 48.15-18.65Q48.15-21.9 48.92-24.3 49.7-26.7 51.55-28 53.4-29.3 56.6-29.3L56.6-29.3Q59.8-29.3 61.62-28 63.45-26.7 64.22-24.3 65-21.9 65-18.65L65-18.65 65-10.25Q65-7 64.22-4.6 63.45-2.2 61.62-0.9 59.8 0.4 56.6 0.4ZM56.6-3.55L56.6-3.55Q58.15-3.55 58.77-4.45 59.4-5.35 59.52-6.83 59.65-8.3 59.65-9.9L59.65-9.9 59.65-18.95Q59.65-20.6 59.52-22.05 59.4-23.5 58.77-24.43 58.15-25.35 56.6-25.35L56.6-25.35Q55.05-25.35 54.4-24.43 53.75-23.5 53.62-22.05 53.5-20.6 53.5-18.95L53.5-18.95 53.5-9.9Q53.5-8.3 53.62-6.83 53.75-5.35 54.4-4.45 55.05-3.55 56.6-3.55ZM75.39 0L70.04 0 70.04-28.9 75.39-28.9 75.39-24.8Q76.99-27.45 78.59-28.35 80.19-29.25 81.79-29.25L81.79-29.25Q81.99-29.25 82.17-29.25 82.34-29.25 82.64-29.2L82.64-29.2 82.64-23.3Q82.04-23.55 81.27-23.73 80.49-23.9 79.69-23.9L79.69-23.9Q78.44-23.9 77.42-23.33 76.39-22.75 75.39-21.1L75.39-21.1 75.39 0ZM93.64 0.4L93.64 0.4Q91.39 0.4 90.02-0.45 88.64-1.3 88.02-2.85 87.39-4.4 87.39-6.5L87.39-6.5 87.39-25.35 84.34-25.35 84.34-28.9 87.39-28.9 87.39-37.35 92.74-37.35 92.74-28.9 97.39-28.9 97.39-25.35 92.74-25.35 92.74-6.85Q92.74-5.15 93.29-4.42 93.84-3.7 95.39-3.7L95.39-3.7Q95.79-3.7 96.32-3.75 96.84-3.8 97.34-3.85L97.34-3.85 97.34 0.1Q96.34 0.25 95.49 0.33 94.64 0.4 93.64 0.4ZM108.04 0.4L108.04 0.4Q104.49 0.4 102.34-1.83 100.19-4.05 99.89-7.7L99.89-7.7 104.34-9.05Q104.74-6.3 105.69-4.93 106.64-3.55 108.49-3.55L108.49-3.55Q109.94-3.55 110.69-4.38 111.44-5.2 111.44-6.6L111.44-6.6Q111.44-7.85 110.89-8.85 110.34-9.85 109.09-10.9L109.09-10.9 104.14-15.15Q102.64-16.45 101.61-18.05 100.59-19.65 100.59-22.2L100.59-22.2Q100.59-24.5 101.51-26.08 102.44-27.65 104.11-28.48 105.79-29.3 108.04-29.3L108.04-29.3Q111.49-29.3 113.31-27.08 115.14-24.85 115.39-21.7L115.39-21.7 111.79-20.35Q111.59-21.85 111.19-22.98 110.79-24.1 110.09-24.73 109.39-25.35 108.24-25.35L108.24-25.35Q106.94-25.35 106.16-24.48 105.39-23.6 105.39-22.4L105.39-22.4Q105.39-21.65 105.71-20.93 106.04-20.2 106.84-19.5L106.84-19.5 111.94-14.8Q112.99-13.85 113.91-12.75 114.84-11.65 115.44-10.25 116.04-8.85 116.04-7L116.04-7Q116.04-4.55 115.04-2.9 114.04-1.25 112.24-0.43 110.44 0.4 108.04 0.4Z" opacity="1" transform="matrix(1,0,0,1,0,0)" fill="#61777f" class="slogan-text-1" data-fill-palette-color="secondary" id="text-1"></path></svg></g></svg></g></svg></g></svg></g><g transform="matrix(1,0,0,1,90.51574080000002,0)"><svg viewBox="0 0 214.48851839999995 214.48851839999995" height="214.48851839999995" width="214.48851839999995"><g><svg></svg></g><g id="icon-0"><svg viewBox="0 0 214.48851839999995 214.48851839999995" height="214.48851839999995" width="214.48851839999995"><g><rect width="195.02567135999996" height="195.02567135999996" x="9.731423519999993" y="9.731423519999993" fill="#61777f" data-fill-palette-color="accent"></rect><rect width="195.02567135999996" height="195.02567135999996" x="-3.552713678800501e-15" y="19.46284703999999" fill="#61777f" opacity="0.5" data-fill-palette-color="accent"></rect></g><g transform="matrix(1,0,0,1,54.21097873765793,27.80406719999999)"><svg viewBox="0 0 106.06656092468408 158.88038399999996" height="158.88038399999996" width="106.06656092468408"><g><svg xmlns="http://www.w3.org/2000/svg" data-name="Layer 1" viewBox="94.944 14.587999949318537 322.05677640185843 482.41881190871464" x="0" y="0" height="158.88038399999996" width="106.06656092468408" class="icon-cg-0" data-fill-palette-color="quaternary" id="cg-0"><path d="M371.321 14.588c-6.811 0-13.7 1.773-21 5.412H161.676c-7.3-3.639-14.186-5.412-21-5.412A45.73 45.73 0 0 0 94.944 60.209c0 25.485 20.515 46.219 45.733 46.219 15.348 0 30.323-8.167 38.323-20.767V394h-31c-4.418 0-8 3.974-8 8.392V435H121.007A7.913 7.913 0 0 0 113 442.89v46.5A7.684 7.684 0 0 0 121.007 497H390.993A7.684 7.684 0 0 0 399 489.387v-46.5a7.913 7.913 0 0 0-8.007-7.89H372V402.392c0-4.418-3.587-8.392-8-8.392H333V85.651c8 12.572 22.969 20.72 38.323 20.72a45.892 45.892 0 0 0 0-91.783ZM195 81h24V394H195Zm40 313V81h42V394Zm148 87H129V451H383Zm-27-46H156V410H356Zm-63-41V81h24V394ZM371.321 90.371a30.506 30.506 0 0 1-28.288-20.049A8 8 0 0 0 335.494 65H176.506a8 8 0 0 0-7.539 5.322c-3.549 9.991-14.4 20.106-28.288 20.106-16.4 0-29.735-13.556-29.735-30.219a29.712 29.712 0 0 1 29.735-29.621c4.675 0 9.671 1.46 15.272 4.463A8 8 0 0 0 159.73 36H352.27a8 8 0 0 0 3.779-0.949c5.6-3 10.6-4.463 15.272-4.463a29.892 29.892 0 0 1 0 59.783Z" fill="#ffffff" data-fill-palette-color="quaternary"></path></svg></g></svg></g></svg></g></svg></g><g></g></svg></g><defs></defs></svg><rect width="239.50819892083967" height="247.2" fill="none" stroke="none" visibility="hidden"></rect></g></svg></g></svg>